# Blender v2.52 (sub 5) OBJ File: <memory2>
# www.blender.org
mtllib cube4.mtl
o Cube
v 1.000000 -1.000000 -1.000000
v 1.000000 -1.000000 1.000000
v -1.000000 -1.000000 1.000000
v -1.000000 -1.000000 -1.000000
v 1.000000 1.000000 -1.000000
v 0.999999 1.000000 1.000001
v -1.000000 1.000000 1.000000
v -1.000000 1.000000 -1.000000
vt 0.474783 0.087862
vt 1.000000 0.000000
vt 0.798272 0.159684
vt 0.636455 0.219126
vt 0.399136 0.366936
vt 0.600864 0.526619
vt 0.873919 0.438757
vt 0.237319 0.307493
vt 0.201728 0.000000
vt 0.075646 0.438757
vt 0.000000 0.159684
vn -0.000000 -1.000000 0.000000
vn 0.000000 1.000000 -0.000000
vn -1.000000 -0.000000 -0.000000
vn -0.000000 -0.000000 1.000000
vn 0.000000 0.000000 -1.000000
usemtl Material_Untitled
s off
f 1/1/1 2/2/1 3/3/1 4/4/1
f 5/5/2 8/6/2 7/7/2 6/8/2
f 1/1/3 2/9/3 6/8/3 5/5/3
f 2/9/4 6/8/4 7/10/4 3/11/4
f 3/3/3 7/7/3 8/6/3 4/4/3
f 5/5/5 1/1/5 4/4/5 8/6/5
