# Blender3D v245 OBJ File: shaderX7.blend
# www.blender3d.org
mtllib shaderX7.mtl
o Plane.002_Plane.003
v 1.000000 0.000000 0.980280
v 1.000000 0.000000 2.980280
v -1.000000 0.000000 2.980280
v -1.000000 0.000000 0.980279
v -2.985192 0.000000 0.980279
v -2.985193 0.000000 2.980280
v -0.985193 0.000000 2.980280
v -0.985193 0.000000 0.980280
v 2.977283 0.000000 0.980280
v 2.977283 0.000000 2.980280
v 0.977283 0.000000 2.980280
v 0.977284 0.000000 0.980279
vt 0.180000 0.670886 0.0
vt 0.180000 0.594937 0.0
vt 0.200000 0.594937 0.0
vt 0.180000 0.670886 0.0
vt 0.200000 0.594937 0.0
vt 0.200000 0.670886 0.0
vt 0.180000 0.670886 0.0
vt 0.180000 0.594937 0.0
vt 0.200000 0.594937 0.0
vt 0.180000 0.670886 0.0
vt 0.200000 0.594937 0.0
vt 0.200000 0.670886 0.0
vt 0.180000 0.670886 0.0
vt 0.180000 0.594937 0.0
vt 0.200000 0.594937 0.0
vt 0.180000 0.670886 0.0
vt 0.200000 0.594937 0.0
vt 0.200000 0.670886 0.0
vn -0.000000 1.000000 -0.000000
g Plane.002_Plane.003_Material.003_shaderX7.tga
usemtl Material.003_shaderX7.tga
s off
f 11/1/1 10/2/1 9/3/1
f 11/4/1 9/5/1 12/6/1
f 6/7/1 7/8/1 8/9/1
f 6/10/1 8/11/1 5/12/1
f 1/13/1 4/14/1 3/15/1
f 1/16/1 3/17/1 2/18/1
o Plane.001_Plane.002
v 1.000000 -0.000000 -2.985145
v 1.000000 -0.000000 -0.985145
v -1.000000 -0.000000 -0.985145
v -1.000000 -0.000000 -2.985146
v -2.985192 -0.000000 -2.985146
v -2.985193 -0.000000 -0.985145
v -0.985193 -0.000000 -0.985145
v -0.985193 -0.000000 -2.985145
v 2.977283 -0.000000 -2.985145
v 2.977283 -0.000000 -0.985145
v 0.977283 -0.000000 -0.985145
v 0.977284 -0.000000 -2.985146
vt 0.183333 0.670886 0.0
vt 0.183333 0.582278 0.0
vt 0.200000 0.582278 0.0
vt 0.183333 0.670886 0.0
vt 0.200000 0.582278 0.0
vt 0.200000 0.670886 0.0
vt 0.183333 0.670886 0.0
vt 0.183333 0.582278 0.0
vt 0.200000 0.582278 0.0
vt 0.183333 0.670886 0.0
vt 0.200000 0.582278 0.0
vt 0.200000 0.670886 0.0
vt 0.183333 0.670886 0.0
vt 0.183333 0.582278 0.0
vt 0.200000 0.582278 0.0
vt 0.183333 0.670886 0.0
vt 0.200000 0.582278 0.0
vt 0.200000 0.670886 0.0
g Plane.001_Plane.002_Material.002_shaderX7.tga
usemtl Material.002_shaderX7.tga
s off
f 23/19/1 22/20/1 21/21/1
f 23/22/1 21/23/1 24/24/1
f 18/25/1 19/26/1 20/27/1
f 18/28/1 20/29/1 17/30/1
f 13/31/1 16/32/1 15/33/1
f 13/34/1 15/35/1 14/36/1
o Plane_Plane.001
v 1.000000 -0.000000 -1.000000
v 1.000000 0.000000 1.000000
v -1.000000 0.000000 1.000000
v -1.000000 -0.000000 -1.000000
v -2.985192 -0.000000 -1.000000
v -2.985193 0.000000 1.000000
v -0.985193 0.000000 1.000000
v -0.985193 -0.000000 -1.000000
v 2.977283 -0.000000 -1.000000
v 2.977283 0.000000 1.000000
v 0.977283 0.000000 1.000000
v 0.977284 -0.000000 -1.000000
vt 0.180000 0.670886 0.0
vt 0.180000 0.582278 0.0
vt 0.200000 0.569620 0.0
vt 0.180000 0.670886 0.0
vt 0.200000 0.569620 0.0
vt 0.200000 0.670886 0.0
vt 0.180000 0.670886 0.0
vt 0.180000 0.582278 0.0
vt 0.200000 0.569620 0.0
vt 0.180000 0.670886 0.0
vt 0.200000 0.569620 0.0
vt 0.200000 0.670886 0.0
vt 0.000000 1.000000 0.0
vt 0.000000 0.000000 0.0
vt 1.000000 0.000000 0.0
vt 0.000000 1.000000 0.0
vt 1.000000 0.000000 0.0
vt 1.000000 1.000000 0.0
g Plane_Plane.001_Material.001_shaderX7.tga
usemtl Material.001_shaderX7.tga
s off
f 35/37/1 34/38/1 33/39/1
f 35/40/1 33/41/1 36/42/1
f 30/43/1 31/44/1 32/45/1
f 30/46/1 32/47/1 29/48/1
f 25/49/1 28/50/1 27/51/1
f 25/52/1 27/53/1 26/54/1
